PathFileType	4	(X/Y/Z)	s05c0202.trc
DataRate	CameraRate	NumFrames	NumMarkers	Units	OrigDataRate	OrigDataStartFrame	OrigNumFrames
200	200	4	49	mm	200	500	2000
Frame#	Time	racr			lacr			c7			jug			rlel			rdr			llel			ldr			s2			lic			ric			lasi			rasi			rpsi			lpsi			rgt			lgt			rth1			rth2			rth3			rth4			rlfc			rsh1			rsh2			rsh3			rsh4			rlmal			rmmal			rcal			rtoe			rmt5			lth1			lth2			lth4			lth3			llfc			lmfc			lsh1			lsh2			lsh3			lsh4			llmal			lmmal			lcal			ltoe			lmt5			SBIKE			LBIKE			RBIKE			
		X1	Y1	Z1	X2	Y2	Z2	X3	Y3	Z3	X4	Y4	Z4	X5	Y5	Z5	X6	Y6	Z6	X7	Y7	Z7	X8	Y8	Z8	X9	Y9	Z9	X10	Y10	Z10	X11	Y11	Z11	X12	Y12	Z12	X13	Y13	Z13	X14	Y14	Z14	X15	Y15	Z15	X16	Y16	Z16	X17	Y17	Z17	X18	Y18	Z18	X19	Y19	Z19	X20	Y20	Z20	X21	Y21	Z21	X22	Y22	Z22	X23	Y23	Z23	X24	Y24	Z24	X25	Y25	Z25	X26	Y26	Z26	X27	Y27	Z27	X28	Y28	Z28	X29	Y29	Z29	X30	Y30	Z30	X31	Y31	Z31	X32	Y32	Z32	X33	Y33	Z33	X34	Y34	Z34	X35	Y35	Z35	X36	Y36	Z36	X37	Y37	Z37	X38	Y38	Z38	X39	Y39	Z39	X40	Y40	Z40	X41	Y41	Z41	X42	Y42	Z42	X43	Y43	Z43	X44	Y44	Z44	X45	Y45	Z45	X46	Y46	Z46	X47	Y47	Z47	X48	Y48	Z48	X49	Y49	Z49	
500	2.5000	487.469459	1286.974371	-230.795161	428.392984	1312.466384	-487.245619	429.219756	1375.148318	-362.487525	395.318433	1208.107169	-355.441445	471.634733	1089.263407	-20.627176	667.860033	965.384206	-98.078549	423.662792	1056.536388	-621.232441	754.229230	1029.834380	-477.050576	-123.377295	1181.132711	-219.197737	-13.240467	1206.091831	-387.630029	59.075522	1176.645687	-113.985747	33.174477	1146.433574	-364.541009	85.985287	1117.996433	-154.906670	-72.448074	1223.157412	-180.163363	-93.346377	1237.719130	-263.848847	5.313594	1045.186523	-86.000779	-78.100721	1110.907371	-413.569014	88.811000	961.452304	-90.517660	159.976874	909.490597	-101.948393	194.166195	828.545514	-111.528885	185.272775	932.116489	-116.277173	273.246382	706.895667	-145.361803	198.718549	633.749512	-108.950437	162.542520	553.148649	-119.156889	96.586040	498.661320	-112.647129	182.277368	539.197879	-149.091188	15.503279	388.708948	-111.793064	36.644394	406.317906	-194.482595	-63.059342	400.490861	-154.895709	161.457870	205.073901	-159.717439	69.386973	247.543758	-93.088940	37.015659	1020.262932	-445.723825	121.387687	1003.499865	-451.358891	139.669392	1034.550687	-439.556082	187.870568	942.521713	-457.216676	309.807762	854.586638	-437.335839	307.077359	839.993582	-327.337850	264.936644	733.372843	-459.343094	265.682280	646.691498	-447.088493	221.008428	569.771248	-443.205117	295.800103	641.503053	-423.472154	193.686333	449.557428	-434.308329	216.839648	482.914490	-357.561722	141.614473	393.335251	-390.414172	430.798016	443.695309	-410.335026	330.139677	391.008420	-468.982944	-177.410382	898.841170	-269.867536	-53.535132	78.975436	-474.892092	-53.493067	79.026627	-77.265755	
501	2.5050	486.695659	1286.806546	-230.525815	427.354089	1312.404201	-486.912650	428.520856	1374.783843	-361.434734	394.458104	1207.840556	-355.105372	471.350353	1088.732479	-20.670423	667.298880	964.807167	-98.768451	423.082115	1056.700462	-621.023361	650.639700	968.199940	-505.935560	-124.501988	1181.023307	-219.784854	-13.659921	1205.968649	-387.928422	57.588820	1176.451602	-113.727495	32.800022	1146.284419	-364.728055	84.007192	1118.121163	-154.829486	-73.779800	1223.170069	-180.543048	-94.161617	1237.531577	-264.328946	3.965076	1045.488852	-86.053535	-78.466441	1110.153587	-413.886135	88.265731	962.565676	-90.842297	160.021587	911.276510	-102.050509	195.056215	830.757587	-111.456548	185.067492	934.159832	-116.142730	275.298564	709.976427	-145.440236	200.044444	637.423811	-109.194738	162.971307	557.268964	-119.408413	96.423981	503.553198	-112.892221	182.529716	543.266650	-149.260943	13.988828	394.809118	-112.044905	33.437020	413.722735	-194.238671	-64.555811	407.232666	-155.115055	158.600956	210.175951	-159.708792	66.790798	253.404649	-93.177749	36.591043	1018.477855	-445.697533	120.689190	1000.426554	-450.819319	139.367398	1031.294566	-439.141208	186.306413	938.514872	-456.171462	307.136325	849.588674	-435.629347	303.306589	833.853313	-326.075004	263.494735	727.902410	-458.498515	265.368541	641.252858	-446.516964	221.699071	563.679521	-443.273765	295.410269	636.296666	-422.691316	195.899959	443.279406	-434.970417	218.579145	476.276062	-357.861598	143.969838	386.731260	-391.609894	433.237737	437.875860	-409.749569	332.972881	385.112629	-469.137201	-177.492379	898.838973	-269.867497	-53.535626	78.982486	-474.877180	-53.481859	79.001797	-77.285282	
502	2.5100	485.996360	1286.509643	-230.141555	426.488048	1312.466987	-486.522697	427.716373	1374.773014	-360.876812	393.684574	1207.747735	-354.792066	471.098009	1088.289141	-20.718240	666.676911	964.182198	-99.449786	422.523845	1056.978426	-620.774822	650.396364	968.261783	-506.053351	-125.563121	1181.034214	-220.504861	-14.162200	1205.833401	-388.185671	56.021957	1176.701540	-113.821743	32.571389	1146.204496	-365.191252	82.507546	1118.365895	-154.652585	-75.115887	1223.294296	-181.141045	-95.115016	1237.433784	-265.033819	1.913311	1045.871813	-86.537027	-78.832581	1109.491070	-414.315702	87.604699	963.938189	-90.999648	160.012765	913.372740	-102.077084	195.799480	833.084870	-111.207725	184.794523	936.360666	-115.947111	277.275477	713.147675	-145.451472	201.262778	641.366767	-109.291869	163.304478	561.578824	-119.578170	96.235905	508.535737	-113.207354	182.812431	547.370939	-149.426124	12.598505	400.997818	-112.247249	32.664678	419.302147	-194.785824	-66.004295	413.887564	-155.380952	156.013890	215.620366	-159.620614	64.403752	259.334921	-93.209597	36.027581	1016.632802	-445.724091	119.922593	997.345528	-450.326424	139.017781	1027.901043	-438.762074	184.641588	934.452483	-455.151474	304.386073	844.432812	-433.580837	299.534030	828.497129	-324.685997	261.963996	722.489205	-457.626097	264.977678	635.784170	-445.867739	222.354262	557.713031	-443.362871	294.946838	631.172225	-421.882803	198.055396	436.966781	-436.043609	220.035402	469.917164	-358.541409	146.287220	380.105324	-393.031392	435.443520	432.252004	-409.292447	335.762325	379.096103	-469.282244	-177.399121	898.828087	-269.666044	-53.543216	78.991788	-474.884462	-53.515010	78.999522	-77.235823	
503	2.5150	485.232760	1286.547000	-229.685350	425.710722	1312.595578	-486.003207	427.022593	1374.899821	-360.333685	394.420997	1207.230715	-355.648697	470.914803	1087.897420	-20.866743	666.104180	963.656311	-100.005506	421.954339	1057.367033	-620.482718	650.105356	968.367353	-506.154103	-126.634690	1181.110414	-221.394647	-14.366266	1205.801253	-388.684772	54.412260	1176.940377	-114.044220	32.334654	1146.131150	-365.477183	81.051341	1118.637540	-154.570187	-76.420984	1223.584181	-181.896916	-96.008582	1236.639324	-265.372923	-0.144331	1046.491848	-87.901567	-79.146920	1108.820846	-414.835826	86.949261	965.383602	-91.036067	159.898556	915.548777	-101.758991	196.541049	835.659296	-110.839101	184.465048	938.824955	-115.749377	279.145446	716.553350	-145.235531	202.362622	645.478438	-109.293814	163.467810	565.989555	-119.709874	95.959203	513.797673	-113.504401	183.136196	551.763404	-149.445191	11.218957	407.287127	-112.365989	31.656356	425.311870	-194.992479	-67.198608	420.661948	-155.655961	153.614675	220.930240	-159.633109	62.221858	265.312676	-93.301017	35.423146	1014.686211	-445.758491	118.923021	994.182792	-449.842071	138.531080	1024.538739	-438.494404	182.885752	930.329921	-454.066499	301.553734	839.417671	-431.767453	295.638109	823.316887	-323.140271	260.520551	717.112094	-456.831142	264.442742	630.500672	-445.405967	222.810829	551.884433	-443.609404	294.400085	626.020839	-421.150907	200.216067	430.312898	-436.966453	221.165262	463.238412	-359.228653	148.431314	373.691195	-394.228620	437.608528	426.347621	-408.927753	338.338348	373.052982	-469.408590	-177.385396	898.832872	-269.441105	-53.566521	78.967166	-474.841298	-53.503662	78.996561	-77.251349	
